<?xml version="1.0" standalone="no"?>
<!DOCTYPE svg PUBLIC "-//W3C//DTD SVG 20010904//EN"
 "http://www.w3.org/TR/2001/REC-SVG-20010904/DTD/svg10.dtd">
<svg version="1.0" xmlns="http://www.w3.org/2000/svg"
 width="256.000000pt" height="256.000000pt" viewBox="0 0 256.000000 256.000000"
 preserveAspectRatio="xMidYMid meet">
<metadata>
Created by potrace 1.16, written by Peter Selinger 2001-2019
</metadata>
<g transform="translate(0.000000,256.000000) scale(0.100000,-0.100000)"
fill="#000000" stroke="none">
<path d="M0 1280 l0 -1280 1280 0 c704 0 1280 3 1280 8 0 4 -48 5 -106 4 -63
-2 -104 0 -101 5 4 5 -1 32 -9 59 -8 27 -13 60 -10 73 5 32 -23 121 -39 121
-6 0 -22 20 -35 45 l-23 44 -43 -29 -42 -30 -6 28 c-3 15 -8 47 -12 72 -7 51
-25 90 -50 111 -16 13 -16 12 -1 -16 13 -27 38 -131 37 -159 -1 -6 -11 21 -24
59 -12 39 -30 84 -39 101 l-16 30 93 12 c51 6 142 27 202 46 60 19 135 37 167
41 l57 7 0 964 0 964 -1280 0 -1280 0 0 -1280z m1664 474 c27 -10 7 -24 -35
-24 -44 0 -53 17 -11 23 15 2 28 5 29 6 1 0 8 -2 17 -5z m60 -44 c11 0 16 -3
13 -7 -4 -4 3 -18 17 -32 13 -14 36 -48 51 -76 15 -27 32 -57 39 -65 37 -49
46 -80 51 -193 l5 -117 -61 -184 c-45 -137 -73 -205 -110 -264 -49 -81 -243
-303 -281 -323 -13 -7 -18 -7 -14 -1 4 6 -11 10 -40 10 -26 0 -51 5 -57 11
-15 15 26 57 68 71 17 6 32 16 33 23 4 49 33 87 66 87 12 0 27 4 34 9 33 21
-75 24 -166 5 -21 -4 -23 -2 -16 18 3 13 22 40 40 61 46 50 43 54 -11 16 -39
-28 -50 -31 -73 -23 -23 8 -27 16 -30 52 -2 24 2 50 8 57 8 10 7 29 -5 75 -9
34 -15 86 -13 117 3 54 3 55 43 69 22 7 41 14 43 14 1 0 2 -19 2 -42 0 -83 30
-89 53 -10 12 39 15 43 21 25 6 -19 59 -53 84 -53 5 0 30 -11 55 -25 32 -18
53 -24 71 -19 14 3 26 9 26 13 0 13 49 31 66 24 13 -5 15 2 14 43 -2 28 5 65
14 86 9 21 16 44 16 52 0 8 5 18 10 21 23 14 7 20 -45 17 -44 -3 -55 -1 -55
11 0 13 54 45 100 60 15 4 -5 16 -52 31 -11 3 -15 11 -12 21 5 11 10 13 19 5
20 -17 30 8 12 28 -8 9 -18 32 -22 50 l-7 34 27 -18 c23 -15 28 -15 36 -3 12
19 11 53 -2 83 -12 26 -38 25 -40 -3 0 -9 -5 -3 -11 12 -7 21 -16 27 -32 25
-16 -2 -22 -11 -24 -38 -5 -63 -11 -64 -52 -3 -21 33 -57 80 -79 105 -40 45
-40 45 -18 56 13 7 54 9 97 7 41 -2 84 -4 94 -5z m-176 -120 c21 -41 48 -89
58 -107 18 -31 18 -31 -9 -81 -15 -27 -29 -65 -30 -83 -4 -31 -9 -36 -58 -56
-30 -12 -62 -24 -72 -27 -9 -2 -24 -20 -32 -40 l-15 -36 -79 2 -80 2 -22 51
c-29 63 -28 62 -39 45 -31 -50 -23 153 9 251 18 53 28 67 51 76 15 6 34 7 41
3 7 -5 19 -5 28 0 9 4 35 16 57 25 23 9 61 30 85 46 52 34 50 35 107 -71z m76
-70 c15 -28 26 -56 24 -62 -5 -14 -73 88 -81 120 -5 22 -4 23 12 8 10 -9 30
-39 45 -66z m446 2 c0 -10 -8 -18 -17 -19 -10 -1 -28 -4 -41 -8 -20 -7 -21 -5
-14 16 5 13 20 26 33 30 30 7 39 3 39 -19z m-936 -24 c-10 -18 -30 -76 -46
-128 -21 -71 -27 -83 -23 -47 4 30 2 47 -4 47 -6 0 -11 15 -11 33 0 25 6 37
23 46 13 7 34 30 47 51 29 47 39 46 14 -2z m928 -134 c1 -106 -1 -126 -21
-166 -32 -67 -55 -83 -113 -79 -22 1 -24 21 -3 21 8 0 15 8 15 18 0 15 -2 15
-11 2 -7 -12 -9 -8 -7 15 2 22 8 30 21 28 14 -1 17 4 14 20 -16 67 -19 97 -8
97 7 0 9 5 5 12 -5 8 0 9 14 6 12 -4 22 -3 22 2 0 4 -9 10 -21 13 -18 5 -19 8
-9 27 12 22 12 22 46 -11 42 -41 44 -34 4 16 -16 21 -30 48 -30 61 0 20 5 24
29 24 17 0 33 5 36 11 12 19 15 4 17 -117z m-115 24 c-3 -8 -6 -5 -6 6 -1 11
2 17 5 13 3 -3 4 -12 1 -19z m-820 -110 c-2 -13 -4 -5 -4 17 -1 22 1 32 4 23
2 -10 2 -28 0 -40z m529 -33 c-22 -17 -46 -20 -46 -6 0 11 18 19 45 20 20 0
20 0 1 -14z m-66 -39 c0 -3 -4 -8 -10 -11 -5 -3 -10 -1 -10 4 0 6 5 11 10 11
6 0 10 -2 10 -4z m123 -2 c18 -18 -57 -85 -93 -83 -10 0 -8 3 5 9 18 8 17 9
-7 9 -15 1 -29 5 -32 10 -7 10 48 23 67 15 8 -3 18 6 25 21 11 25 23 31 35 19z
m-610 -79 c4 -8 2 -17 -3 -20 -6 -4 -10 -4 -10 -1 0 2 -3 11 -6 20 -3 9 -2 16
4 16 5 0 12 -7 15 -15z m-38 -5 c4 -6 -5 -10 -19 -10 -14 0 -26 5 -26 10 0 6
9 10 19 10 11 0 23 -4 26 -10z m532 4 c-3 -3 -12 -4 -19 -1 -8 3 -5 6 6 6 11
1 17 -2 13 -5z m-534 -31 c-7 -2 -21 -2 -30 0 -10 3 -4 5 12 5 17 0 24 -2 18
-5z m137 -104 c0 -12 -32 -69 -39 -69 -3 0 -12 14 -19 32 -10 27 -9 35 4 49
13 15 20 16 35 6 10 -6 19 -15 19 -18z m-76 -35 c3 -8 2 -12 -4 -9 -6 3 -10
10 -10 16 0 14 7 11 14 -7z m882 -211 c13 -29 24 -62 24 -73 0 -36 -35 -3 -36
34 0 17 -8 47 -17 65 -20 40 -21 44 -6 35 6 -3 22 -31 35 -61z m-831 7 c0 -8
-8 -16 -17 -18 -13 -2 -18 3 -18 18 0 15 5 20 18 18 9 -2 17 -10 17 -18z m952
-452 c-3 -8 -6 -5 -6 6 -1 11 2 17 5 13 3 -3 4 -12 1 -19z m50 -148 c4 -8 7
-18 7 -22 1 -5 12 -20 26 -35 14 -16 33 -40 43 -55 l17 -28 -90 0 c-49 0 -90
2 -90 5 0 3 9 23 20 45 11 22 20 46 20 55 0 26 33 82 37 65 3 -8 7 -22 10 -30z
m-1275 -95 c24 -6 25 -9 15 -26 -6 -10 -21 -19 -32 -19 -16 0 -23 10 -32 40
-10 37 -9 40 6 26 9 -8 28 -17 43 -21z m1195 13 c-3 -8 -6 -5 -6 6 -1 11 2 17
5 13 3 -3 4 -12 1 -19z m-1287 -32 c0 -6 5 -4 10 4 8 12 10 11 10 -7 0 -19 -3
-20 -34 -11 -27 8 -32 14 -23 23 13 14 37 9 37 -9z"/>
<path d="M1512 547 c-12 -13 -19 -26 -16 -30 4 -3 16 5 26 19 26 33 18 41 -10
11z"/>
<path d="M860 56 c0 -3 9 -10 20 -16 11 -6 20 -8 20 -6 0 3 -9 10 -20 16 -11
6 -20 8 -20 6z"/>
<path d="M2309 497 c-43 -38 -56 -67 -31 -67 18 0 76 74 70 89 -2 5 -19 -5
-39 -22z"/>
<path d="M2170 486 c0 -2 7 -9 15 -16 12 -10 15 -10 15 4 0 9 -7 16 -15 16 -8
0 -15 -2 -15 -4z"/>
</g>
</svg>
